<svg id="Layer_1" data-name="Layer 1" xmlns="http://www.w3.org/2000/svg" viewBox="0 0 100 100"><defs><style>.cls-1{fill:#1a1a1a;}.cls-2{fill:#f4e852;}</style></defs><rect class="cls-1" width="100" height="100" rx="14.98"/><path class="cls-2" d="M72.66,72.92a8,8,0,0,1,2.94-1.07,7.92,7.92,0,0,1-2.87-1,10.29,10.29,0,0,1,.71-1.64c.31-.56.63-1.12,1-1.66-.54.34-1.11.68-1.67,1a11.73,11.73,0,0,1-1.56.69,9.92,9.92,0,0,1-.62-1.6c-.18-.6-.34-4.63-.48-5.24C70,63,69.78,67,69.6,67.59a9.22,9.22,0,0,1-.66,1.67A8.11,8.11,0,0,1,66.19,68a7.75,7.75,0,0,1,1.32,2.83,8,8,0,0,1-2.92,1.06,8.15,8.15,0,0,1,2.86,1,8.72,8.72,0,0,1-.73,1.65c-.29.56-.63,1.12-1,1.66.53-.34,1.09-.69,1.65-1A11.12,11.12,0,0,1,69,74.52a9.78,9.78,0,0,1,.62,1.59c.18.61.35,4.26.49,4.86.14-.6.3-4.25.48-4.86a10.38,10.38,0,0,1,.66-1.67A7.9,7.9,0,0,1,74,75.75,8.06,8.06,0,0,1,72.66,72.92Z"/><path class="cls-2" d="M50.84,57.22a7.69,7.69,0,0,1,2.93-1.07,8.18,8.18,0,0,1-2.87-1,10.29,10.29,0,0,1,.71-1.64c.31-.56.64-1.12,1-1.66-.53.34-1.11.67-1.66,1a11.81,11.81,0,0,1-1.57.69,11.42,11.42,0,0,1-.62-1.6c-.18-.6-.34-4.63-.48-5.24-.14.61-.31,4.64-.48,5.24a11,11,0,0,1-.66,1.67,8.07,8.07,0,0,1-2.76-1.3,7.83,7.83,0,0,1,1.32,2.83,8,8,0,0,1-2.92,1.06,8.15,8.15,0,0,1,2.86,1,8.72,8.72,0,0,1-.73,1.65c-.29.56-.63,1.12-1,1.66.53-.34,1.09-.69,1.65-1a11.12,11.12,0,0,1,1.57-.69,9.75,9.75,0,0,1,.63,1.59c.17.61.34,4.26.48,4.86.14-.6.3-4.25.48-4.86a10.42,10.42,0,0,1,.66-1.66,7.63,7.63,0,0,1,2.74,1.3A7.87,7.87,0,0,1,50.84,57.22Z"/><path class="cls-2" d="M61,10.64a7.52,7.52,0,0,1,2.8-1,7.54,7.54,0,0,1-2.74-1,9.94,9.94,0,0,1,.68-1.57c.29-.54.61-1.08.94-1.59-.51.32-1.06.65-1.59.93a9.2,9.2,0,0,1-1.5.66A8.72,8.72,0,0,1,59,5.53c-.17-.58-.33-4.44-.47-5-.13.59-.28,4.45-.47,5a8.23,8.23,0,0,1-.62,1.6,7.55,7.55,0,0,1-2.64-1.24A7.77,7.77,0,0,1,56.08,8.6a7.55,7.55,0,0,1-2.82,1,7.78,7.78,0,0,1,2.75,1,8.87,8.87,0,0,1-.69,1.57c-.28.54-.61,1.09-.93,1.59.51-.32,1-.64,1.59-.93a9.2,9.2,0,0,1,1.5-.66,8.59,8.59,0,0,1,.59,1.53c.19.58.34,4.07.47,4.66.14-.59.3-4.08.47-4.66a9.53,9.53,0,0,1,.63-1.6,7.77,7.77,0,0,1,2.63,1.24A7.4,7.4,0,0,1,61,10.64Z"/><path class="cls-2" d="M37.2,33.63a12.57,12.57,0,0,1,4.64-1.69,12.7,12.7,0,0,1-4.54-1.62,15.84,15.84,0,0,1,1.14-2.61c.46-.88,1-1.79,1.53-2.63-.82.54-1.74,1.07-2.63,1.56a14,14,0,0,1-2.47,1.07,14.4,14.4,0,0,1-1-2.53c-.29-.95-.56-7.32-.78-8.3-.21,1-.47,7.35-.76,8.3a14.08,14.08,0,0,1-1,2.65,12.68,12.68,0,0,1-4.36-2A12.5,12.5,0,0,1,29,30.25a12.23,12.23,0,0,1-4.64,1.69,13,13,0,0,1,4.54,1.63,15.3,15.3,0,0,1-1.13,2.6c-.48.89-1,1.79-1.54,2.63.83-.53,1.74-1.06,2.61-1.53a14.43,14.43,0,0,1,2.49-1.11,15.52,15.52,0,0,1,1,2.54c.29.95.55,6.72.76,7.68.22-1,.49-6.73.78-7.68a14,14,0,0,1,1-2.64,12.57,12.57,0,0,1,4.36,2A12.59,12.59,0,0,1,37.2,33.63Z"/><path class="cls-2" d="M66.59,36.48A3.62,3.62,0,0,0,65.28,36a3.14,3.14,0,0,0,1.27-.46,4.59,4.59,0,0,0-.31-.72,8.15,8.15,0,0,0-.44-.75l.74.45a4.9,4.9,0,0,0,.7.3,5,5,0,0,0,.28-.71c.07-.27.15-2.06.21-2.34.06.28.13,2.07.22,2.34a4.08,4.08,0,0,0,.29.74,3.52,3.52,0,0,0,1.22-.58,3.54,3.54,0,0,0-.58,1.26,3.29,3.29,0,0,0,1.3.47,3.52,3.52,0,0,0-1.28.46,4.33,4.33,0,0,0,.32.72c.14.26.28.51.43.75-.23-.15-.48-.3-.73-.44s-.5-.23-.7-.31a4.8,4.8,0,0,0-.27.71c-.09.27-.16,1.88-.22,2.17-.06-.29-.14-1.9-.21-2.17a5.28,5.28,0,0,0-.29-.73,3.42,3.42,0,0,0-1.22.57A3.55,3.55,0,0,0,66.59,36.48Z"/><path class="cls-2" d="M57.45,95.92a3.34,3.34,0,0,0-1.31-.47A3.3,3.3,0,0,0,57.41,95a3.63,3.63,0,0,0-.32-.72,6.93,6.93,0,0,0-.43-.75l.74.44a5,5,0,0,0,.7.31,4.2,4.2,0,0,0,.27-.72c.08-.26.16-2,.22-2.33,0,.28.13,2.07.22,2.33a3.46,3.46,0,0,0,.29.74,3.68,3.68,0,0,0,1.22-.57A3.16,3.16,0,0,0,59.74,95a3.66,3.66,0,0,0,1.29.47,3.28,3.28,0,0,0-1.27.45,4,4,0,0,0,.32.73c.14.25.28.51.43.75-.23-.15-.48-.31-.74-.45a6.39,6.39,0,0,0-.7-.3,3.42,3.42,0,0,0-.26.71c-.09.27-.17,1.88-.22,2.16-.06-.28-.14-1.89-.22-2.16a3.46,3.46,0,0,0-.29-.74,3.79,3.79,0,0,0-1.22.57A3.36,3.36,0,0,0,57.45,95.92Z"/></svg>